<svg width="32" height="32" viewBox="0 0 32 32" fill="none" xmlns="http://www.w3.org/2000/svg">
<path d="M26.866 19.0679C26.866 20.862 24.0471 22.3175 20.5704 22.3175C17.0937 22.3175 14.276 20.862 14.276 19.0679" stroke="#F4F4F4" stroke-width="2" stroke-linecap="round" stroke-linejoin="round"/>
<path d="M11.431 16.1823C7.95435 16.1823 5.13538 14.7281 5.13538 12.9326" stroke="#F4F4F4" stroke-width="2" stroke-linecap="round" stroke-linejoin="round"/>
<path d="M5.13538 7.25V18.6165C5.13538 20.412 7.95435 21.8661 11.431 21.8661" stroke="#F4F4F4" stroke-width="2" stroke-linecap="round" stroke-linejoin="round"/>
<path d="M11.431 10.4993C7.95435 10.4993 5.13538 9.04508 5.13538 7.24965C5.13538 5.45553 7.95435 4 11.431 4C14.9077 4 17.7266 5.45553 17.7266 7.24965" stroke="#F4F4F4" stroke-width="2" stroke-linecap="round" stroke-linejoin="round"/>
<path d="M26.866 13.3857V24.7523C26.866 26.5476 24.0471 28.0019 20.5704 28.0019C17.0937 28.0019 14.276 26.5476 14.276 24.7523V13.3857" stroke="#F4F4F4" stroke-width="2" stroke-linecap="round" stroke-linejoin="round"/>
<path fill-rule="evenodd" clip-rule="evenodd" d="M26.866 13.3854C26.866 15.1795 24.0471 16.6351 20.5704 16.6351C17.0937 16.6351 14.276 15.1795 14.276 13.3854C14.276 11.5913 17.0937 10.1357 20.5704 10.1357C24.0471 10.1357 26.866 11.5913 26.866 13.3854Z" stroke="#F4F4F4" stroke-width="2" stroke-linecap="round" stroke-linejoin="round"/>
</svg>
