<svg width="24" height="22" viewBox="0 0 24 22" fill="none" xmlns="http://www.w3.org/2000/svg">
<g clip-path="url(#clip0_4107_2312)">
<path d="M22.9208 4.6443L14.2074 20.8456H9.79203L1.07861 4.6443L2.79667 0.961914H21.2027L22.9208 4.6443Z" fill="#141413"/>
<path d="M22.6863 4.77901L14.1605 20.6344H9.83901L1.31323 4.77901L2.99024 1.17285H21.0034L22.6863 4.77901Z" stroke="#40AF77" stroke-width="0.873891" stroke-miterlimit="10"/>
<path d="M21.5313 5.44181L13.9261 19.5791H10.0737L2.46851 5.44181L3.96961 2.22852H20.0302L21.5313 5.44181Z" stroke="#D0EA65" stroke-width="0.218473" stroke-miterlimit="10"/>
<path d="M14.4841 9.34654C15.0939 8.3028 15.6979 7.2708 16.3018 6.23293C16.2784 6.23293 16.2666 6.23293 16.249 6.23293C16.0673 6.23293 15.8796 6.23293 15.6979 6.23293C15.6744 6.23293 15.6392 6.25052 15.6275 6.27397C15.088 7.19457 14.5486 8.12103 14.0091 9.04749C13.241 10.3668 12.4728 11.6803 11.6988 12.9996C11.6754 13.0406 11.6754 13.0641 11.6988 13.1051C11.7985 13.2693 11.8923 13.4394 11.992 13.6094C12.0682 13.4804 12.1445 13.3573 12.2148 13.2283C12.7895 12.2373 13.37 11.2464 13.9446 10.2554C14.0033 10.1499 14.0619 10.0443 14.1264 9.94463C14.1381 9.92704 14.1674 9.90358 14.1909 9.90358C14.9356 9.90358 15.6744 9.90358 16.4191 9.90358C16.4191 9.90358 16.4249 9.90358 16.4425 9.90358C14.959 12.4601 13.4755 15.0167 11.9862 17.5791C11.9392 17.497 11.8982 17.4267 11.8572 17.3563C11.177 16.1836 10.4968 15.0167 9.81659 13.844C9.65827 13.5684 9.61723 13.2693 9.62309 12.9586C9.62896 12.6302 9.71691 12.337 9.88696 12.0497C10.403 11.1819 10.9072 10.3082 11.4115 9.44036C11.9334 8.54908 12.4494 7.66366 12.9712 6.77239C13.3113 6.18602 13.6514 5.59379 13.9974 5.01328C14.2319 4.62042 14.5779 4.35069 15.0294 4.24514C15.1349 4.22169 15.2522 4.20996 15.3636 4.20996C16.8002 4.20996 18.231 4.20996 19.6676 4.20996H19.7438C19.6851 4.30964 19.6382 4.40346 19.5855 4.49142C19.046 5.42374 18.5066 6.35606 17.9612 7.28252C17.5742 7.95098 17.1872 8.61358 16.8002 9.28204C16.7768 9.32308 16.7533 9.34067 16.7005 9.34067C15.9793 9.34067 15.2581 9.34067 14.5368 9.34067H14.4665L14.4841 9.34654Z" fill="white"/>
<path d="M7.53501 9.89772C7.43533 9.72767 7.34151 9.56935 7.25355 9.40517C6.97796 8.92435 6.6965 8.44939 6.42091 7.96857C6.39746 7.92752 6.39746 7.90407 6.42091 7.86302C6.97796 6.90724 7.52328 5.93974 8.10378 4.99569C8.40283 4.509 8.8602 4.21582 9.45243 4.21582C10.8773 4.21582 12.3022 4.21582 13.727 4.21582H13.8209C13.8209 4.21582 13.8091 4.251 13.7974 4.26859C13.428 4.90187 13.0586 5.53515 12.6892 6.16842C12.6657 6.20947 12.6305 6.21533 12.5895 6.21533C11.6454 6.21533 10.6955 6.21533 9.75148 6.21533C9.6987 6.21533 9.66938 6.23292 9.64007 6.27983C9.54625 6.44401 9.45243 6.60233 9.35275 6.77238H12.3198C12.3198 6.77238 12.308 6.80756 12.3022 6.81929C11.9269 7.46429 11.5516 8.10343 11.1822 8.74844C11.1588 8.78948 11.1294 8.79535 11.0884 8.79535C10.1443 8.79535 9.19443 8.79535 8.25038 8.79535C8.1976 8.79535 8.16829 8.80707 8.13897 8.85985C7.9396 9.2058 7.74024 9.5459 7.52915 9.90358L7.53501 9.89772Z" fill="white"/>
<path d="M6.05748 7.35874C5.44766 6.30915 4.8437 5.26541 4.23975 4.22168H7.88695C7.27713 5.26541 6.67317 6.30915 6.05748 7.35874Z" fill="white"/>
</g>
<defs>
<clipPath id="clip0_4107_2312">
<rect width="24" height="21.807" fill="white"/>
</clipPath>
</defs>
</svg>
