<svg width="683" height="545" viewBox="0 0 683 545" fill="none" xmlns="http://www.w3.org/2000/svg">
<path d="M0 0.331146L13.0505 21.392L27.4922 0L0 0.331146Z" fill="url(#paint0_linear_1_1421)"/>
<path d="M93.6061 0.331146L106.723 21.392L121.165 0L93.6061 0.331146Z" fill="url(#paint1_linear_1_1421)"/>
<path d="M187.278 0.331146L200.329 21.392L214.771 0L187.278 0.331146Z" fill="url(#paint2_linear_1_1421)"/>
<path d="M280.885 0.331146L294.001 21.392L308.443 0L280.885 0.331146Z" fill="url(#paint3_linear_1_1421)"/>
<path d="M374.557 0.331146L387.607 21.392L402.049 0L374.557 0.331146Z" fill="url(#paint4_linear_1_1421)"/>
<path d="M468.163 0.331146L481.28 21.392L495.722 0L468.163 0.331146Z" fill="url(#paint5_linear_1_1421)"/>
<path d="M561.835 0.331146L574.886 21.392L589.328 0L561.835 0.331146Z" fill="url(#paint6_linear_1_1421)"/>
<path d="M655.442 0.331146L668.558 21.392L683 0L655.442 0.331146Z" fill="url(#paint7_linear_1_1421)"/>
<path d="M46.3725 73.2495L59.4892 94.3766L73.9309 72.9183L46.3725 73.2495Z" fill="url(#paint8_linear_1_1421)"/>
<path d="M140.045 73.2495L153.095 94.3766L167.537 72.9183L140.045 73.2495Z" fill="url(#paint9_linear_1_1421)"/>
<path d="M233.651 73.2495L246.768 94.3766L261.209 72.9183L233.651 73.2495Z" fill="url(#paint10_linear_1_1421)"/>
<path d="M327.323 73.2495L340.374 94.3766L354.816 72.9183L327.323 73.2495Z" fill="url(#paint11_linear_1_1421)"/>
<path d="M420.929 73.2495L434.046 94.3766L448.488 72.9183L420.929 73.2495Z" fill="url(#paint12_linear_1_1421)"/>
<path d="M514.602 73.2495L527.652 94.3766L542.094 72.9183L514.602 73.2495Z" fill="url(#paint13_linear_1_1421)"/>
<path d="M608.208 73.2495L621.258 94.3766L635.7 72.9183L608.208 73.2495Z" fill="url(#paint14_linear_1_1421)"/>
<path d="M93.6061 154.115L106.723 175.242L121.165 153.784L93.6061 154.115Z" fill="url(#paint15_linear_1_1421)"/>
<path d="M187.278 154.115L200.329 175.242L214.771 153.784L187.278 154.115Z" fill="url(#paint16_linear_1_1421)"/>
<path d="M280.885 154.115L294.001 175.242L308.443 153.784L280.885 154.115Z" fill="url(#paint17_linear_1_1421)"/>
<path d="M374.557 154.115L387.607 175.242L402.049 153.784L374.557 154.115Z" fill="url(#paint18_linear_1_1421)"/>
<path d="M468.163 154.115L481.28 175.242L495.722 153.784L468.163 154.115Z" fill="url(#paint19_linear_1_1421)"/>
<path d="M561.835 154.115L574.886 175.242L589.328 153.784L561.835 154.115Z" fill="url(#paint20_linear_1_1421)"/>
<path d="M187.278 313.529L200.329 334.59L214.771 313.198L187.278 313.529Z" fill="url(#paint21_linear_1_1421)"/>
<path d="M280.885 313.529L294.001 334.59L308.443 313.198L280.885 313.529Z" fill="url(#paint22_linear_1_1421)"/>
<path d="M374.557 313.529L387.607 334.59L402.049 313.198L374.557 313.529Z" fill="url(#paint23_linear_1_1421)"/>
<path d="M468.163 313.529L481.28 334.59L495.722 313.198L468.163 313.529Z" fill="url(#paint24_linear_1_1421)"/>
<path d="M287.907 457.71L301.023 478.837L315.465 457.445L287.907 457.71Z" fill="url(#paint25_linear_1_1421)"/>
<path d="M381.579 457.71L394.63 478.837L409.071 457.445L381.579 457.71Z" fill="url(#paint26_linear_1_1421)"/>
<path d="M241.071 388.103L254.187 409.23L268.629 387.838L241.071 388.103Z" fill="url(#paint27_linear_1_1421)"/>
<path d="M362.235 387.838L334.743 388.103L347.793 409.23L362.235 387.838Z" fill="url(#paint28_linear_1_1421)"/>
<path d="M334.743 523.939L347.793 545L362.235 523.608L334.743 523.939Z" fill="url(#paint29_linear_1_1421)"/>
<path d="M428.349 388.103L441.466 409.23L455.908 387.838L428.349 388.103Z" fill="url(#paint30_linear_1_1421)"/>
<path d="M140.442 230.676L153.559 251.803L168.001 230.411L140.442 230.676Z" fill="url(#paint31_linear_1_1421)"/>
<path d="M234.115 230.676L247.165 251.803L261.607 230.411L234.115 230.676Z" fill="url(#paint32_linear_1_1421)"/>
<path d="M327.721 230.676L340.771 251.803L355.279 230.411L327.721 230.676Z" fill="url(#paint33_linear_1_1421)"/>
<path d="M421.393 230.676L434.444 251.803L448.885 230.411L421.393 230.676Z" fill="url(#paint34_linear_1_1421)"/>
<path d="M514.999 230.676L528.05 251.803L542.491 230.411L514.999 230.676Z" fill="url(#paint35_linear_1_1421)"/>
<defs>
<linearGradient id="paint0_linear_1_1421" x1="341.5" y1="0" x2="341.5" y2="545" gradientUnits="userSpaceOnUse">
<stop stop-color="#052211" stop-opacity="0"/>
<stop offset="0.505" stop-color="#C3FF5A" stop-opacity="0.3"/>
<stop offset="1" stop-color="#052211" stop-opacity="0"/>
</linearGradient>
<linearGradient id="paint1_linear_1_1421" x1="341.5" y1="0" x2="341.5" y2="545" gradientUnits="userSpaceOnUse">
<stop stop-color="#052211" stop-opacity="0"/>
<stop offset="0.505" stop-color="#C3FF5A" stop-opacity="0.3"/>
<stop offset="1" stop-color="#052211" stop-opacity="0"/>
</linearGradient>
<linearGradient id="paint2_linear_1_1421" x1="341.5" y1="0" x2="341.5" y2="545" gradientUnits="userSpaceOnUse">
<stop stop-color="#052211" stop-opacity="0"/>
<stop offset="0.505" stop-color="#C3FF5A" stop-opacity="0.3"/>
<stop offset="1" stop-color="#052211" stop-opacity="0"/>
</linearGradient>
<linearGradient id="paint3_linear_1_1421" x1="341.5" y1="0" x2="341.5" y2="545" gradientUnits="userSpaceOnUse">
<stop stop-color="#052211" stop-opacity="0"/>
<stop offset="0.505" stop-color="#C3FF5A" stop-opacity="0.3"/>
<stop offset="1" stop-color="#052211" stop-opacity="0"/>
</linearGradient>
<linearGradient id="paint4_linear_1_1421" x1="341.5" y1="0" x2="341.5" y2="545" gradientUnits="userSpaceOnUse">
<stop stop-color="#052211" stop-opacity="0"/>
<stop offset="0.505" stop-color="#C3FF5A" stop-opacity="0.3"/>
<stop offset="1" stop-color="#052211" stop-opacity="0"/>
</linearGradient>
<linearGradient id="paint5_linear_1_1421" x1="341.5" y1="0" x2="341.5" y2="545" gradientUnits="userSpaceOnUse">
<stop stop-color="#052211" stop-opacity="0"/>
<stop offset="0.505" stop-color="#C3FF5A" stop-opacity="0.3"/>
<stop offset="1" stop-color="#052211" stop-opacity="0"/>
</linearGradient>
<linearGradient id="paint6_linear_1_1421" x1="341.5" y1="0" x2="341.5" y2="545" gradientUnits="userSpaceOnUse">
<stop stop-color="#052211" stop-opacity="0"/>
<stop offset="0.505" stop-color="#C3FF5A" stop-opacity="0.3"/>
<stop offset="1" stop-color="#052211" stop-opacity="0"/>
</linearGradient>
<linearGradient id="paint7_linear_1_1421" x1="341.5" y1="0" x2="341.5" y2="545" gradientUnits="userSpaceOnUse">
<stop stop-color="#052211" stop-opacity="0"/>
<stop offset="0.505" stop-color="#C3FF5A" stop-opacity="0.3"/>
<stop offset="1" stop-color="#052211" stop-opacity="0"/>
</linearGradient>
<linearGradient id="paint8_linear_1_1421" x1="341.5" y1="0" x2="341.5" y2="545" gradientUnits="userSpaceOnUse">
<stop stop-color="#052211" stop-opacity="0"/>
<stop offset="0.505" stop-color="#C3FF5A" stop-opacity="0.3"/>
<stop offset="1" stop-color="#052211" stop-opacity="0"/>
</linearGradient>
<linearGradient id="paint9_linear_1_1421" x1="341.5" y1="0" x2="341.5" y2="545" gradientUnits="userSpaceOnUse">
<stop stop-color="#052211" stop-opacity="0"/>
<stop offset="0.505" stop-color="#C3FF5A" stop-opacity="0.3"/>
<stop offset="1" stop-color="#052211" stop-opacity="0"/>
</linearGradient>
<linearGradient id="paint10_linear_1_1421" x1="341.5" y1="0" x2="341.5" y2="545" gradientUnits="userSpaceOnUse">
<stop stop-color="#052211" stop-opacity="0"/>
<stop offset="0.505" stop-color="#C3FF5A" stop-opacity="0.3"/>
<stop offset="1" stop-color="#052211" stop-opacity="0"/>
</linearGradient>
<linearGradient id="paint11_linear_1_1421" x1="341.5" y1="0" x2="341.5" y2="545" gradientUnits="userSpaceOnUse">
<stop stop-color="#052211" stop-opacity="0"/>
<stop offset="0.505" stop-color="#C3FF5A" stop-opacity="0.3"/>
<stop offset="1" stop-color="#052211" stop-opacity="0"/>
</linearGradient>
<linearGradient id="paint12_linear_1_1421" x1="341.5" y1="0" x2="341.5" y2="545" gradientUnits="userSpaceOnUse">
<stop stop-color="#052211" stop-opacity="0"/>
<stop offset="0.505" stop-color="#C3FF5A" stop-opacity="0.3"/>
<stop offset="1" stop-color="#052211" stop-opacity="0"/>
</linearGradient>
<linearGradient id="paint13_linear_1_1421" x1="341.5" y1="0" x2="341.5" y2="545" gradientUnits="userSpaceOnUse">
<stop stop-color="#052211" stop-opacity="0"/>
<stop offset="0.505" stop-color="#C3FF5A" stop-opacity="0.3"/>
<stop offset="1" stop-color="#052211" stop-opacity="0"/>
</linearGradient>
<linearGradient id="paint14_linear_1_1421" x1="341.5" y1="0" x2="341.5" y2="545" gradientUnits="userSpaceOnUse">
<stop stop-color="#052211" stop-opacity="0"/>
<stop offset="0.505" stop-color="#C3FF5A" stop-opacity="0.3"/>
<stop offset="1" stop-color="#052211" stop-opacity="0"/>
</linearGradient>
<linearGradient id="paint15_linear_1_1421" x1="341.5" y1="0" x2="341.5" y2="545" gradientUnits="userSpaceOnUse">
<stop stop-color="#052211" stop-opacity="0"/>
<stop offset="0.505" stop-color="#C3FF5A" stop-opacity="0.3"/>
<stop offset="1" stop-color="#052211" stop-opacity="0"/>
</linearGradient>
<linearGradient id="paint16_linear_1_1421" x1="341.5" y1="0" x2="341.5" y2="545" gradientUnits="userSpaceOnUse">
<stop stop-color="#052211" stop-opacity="0"/>
<stop offset="0.505" stop-color="#C3FF5A" stop-opacity="0.3"/>
<stop offset="1" stop-color="#052211" stop-opacity="0"/>
</linearGradient>
<linearGradient id="paint17_linear_1_1421" x1="341.5" y1="0" x2="341.5" y2="545" gradientUnits="userSpaceOnUse">
<stop stop-color="#052211" stop-opacity="0"/>
<stop offset="0.505" stop-color="#C3FF5A" stop-opacity="0.3"/>
<stop offset="1" stop-color="#052211" stop-opacity="0"/>
</linearGradient>
<linearGradient id="paint18_linear_1_1421" x1="341.5" y1="0" x2="341.5" y2="545" gradientUnits="userSpaceOnUse">
<stop stop-color="#052211" stop-opacity="0"/>
<stop offset="0.505" stop-color="#C3FF5A" stop-opacity="0.3"/>
<stop offset="1" stop-color="#052211" stop-opacity="0"/>
</linearGradient>
<linearGradient id="paint19_linear_1_1421" x1="341.5" y1="0" x2="341.5" y2="545" gradientUnits="userSpaceOnUse">
<stop stop-color="#052211" stop-opacity="0"/>
<stop offset="0.505" stop-color="#C3FF5A" stop-opacity="0.3"/>
<stop offset="1" stop-color="#052211" stop-opacity="0"/>
</linearGradient>
<linearGradient id="paint20_linear_1_1421" x1="341.5" y1="0" x2="341.5" y2="545" gradientUnits="userSpaceOnUse">
<stop stop-color="#052211" stop-opacity="0"/>
<stop offset="0.505" stop-color="#C3FF5A" stop-opacity="0.3"/>
<stop offset="1" stop-color="#052211" stop-opacity="0"/>
</linearGradient>
<linearGradient id="paint21_linear_1_1421" x1="341.5" y1="0" x2="341.5" y2="545" gradientUnits="userSpaceOnUse">
<stop stop-color="#052211" stop-opacity="0"/>
<stop offset="0.505" stop-color="#C3FF5A" stop-opacity="0.3"/>
<stop offset="1" stop-color="#052211" stop-opacity="0"/>
</linearGradient>
<linearGradient id="paint22_linear_1_1421" x1="341.5" y1="0" x2="341.5" y2="545" gradientUnits="userSpaceOnUse">
<stop stop-color="#052211" stop-opacity="0"/>
<stop offset="0.505" stop-color="#C3FF5A" stop-opacity="0.3"/>
<stop offset="1" stop-color="#052211" stop-opacity="0"/>
</linearGradient>
<linearGradient id="paint23_linear_1_1421" x1="341.5" y1="0" x2="341.5" y2="545" gradientUnits="userSpaceOnUse">
<stop stop-color="#052211" stop-opacity="0"/>
<stop offset="0.505" stop-color="#C3FF5A" stop-opacity="0.3"/>
<stop offset="1" stop-color="#052211" stop-opacity="0"/>
</linearGradient>
<linearGradient id="paint24_linear_1_1421" x1="341.5" y1="0" x2="341.5" y2="545" gradientUnits="userSpaceOnUse">
<stop stop-color="#052211" stop-opacity="0"/>
<stop offset="0.505" stop-color="#C3FF5A" stop-opacity="0.3"/>
<stop offset="1" stop-color="#052211" stop-opacity="0"/>
</linearGradient>
<linearGradient id="paint25_linear_1_1421" x1="341.5" y1="0" x2="341.5" y2="545" gradientUnits="userSpaceOnUse">
<stop stop-color="#052211" stop-opacity="0"/>
<stop offset="0.505" stop-color="#C3FF5A" stop-opacity="0.3"/>
<stop offset="1" stop-color="#052211" stop-opacity="0"/>
</linearGradient>
<linearGradient id="paint26_linear_1_1421" x1="341.5" y1="0" x2="341.5" y2="545" gradientUnits="userSpaceOnUse">
<stop stop-color="#052211" stop-opacity="0"/>
<stop offset="0.505" stop-color="#C3FF5A" stop-opacity="0.3"/>
<stop offset="1" stop-color="#052211" stop-opacity="0"/>
</linearGradient>
<linearGradient id="paint27_linear_1_1421" x1="341.5" y1="0" x2="341.5" y2="545" gradientUnits="userSpaceOnUse">
<stop stop-color="#052211" stop-opacity="0"/>
<stop offset="0.505" stop-color="#C3FF5A" stop-opacity="0.3"/>
<stop offset="1" stop-color="#052211" stop-opacity="0"/>
</linearGradient>
<linearGradient id="paint28_linear_1_1421" x1="341.5" y1="0" x2="341.5" y2="545" gradientUnits="userSpaceOnUse">
<stop stop-color="#052211" stop-opacity="0"/>
<stop offset="0.505" stop-color="#C3FF5A" stop-opacity="0.3"/>
<stop offset="1" stop-color="#052211" stop-opacity="0"/>
</linearGradient>
<linearGradient id="paint29_linear_1_1421" x1="341.5" y1="0" x2="341.5" y2="545" gradientUnits="userSpaceOnUse">
<stop stop-color="#052211" stop-opacity="0"/>
<stop offset="0.505" stop-color="#C3FF5A" stop-opacity="0.3"/>
<stop offset="1" stop-color="#052211" stop-opacity="0"/>
</linearGradient>
<linearGradient id="paint30_linear_1_1421" x1="341.5" y1="0" x2="341.5" y2="545" gradientUnits="userSpaceOnUse">
<stop stop-color="#052211" stop-opacity="0"/>
<stop offset="0.505" stop-color="#C3FF5A" stop-opacity="0.3"/>
<stop offset="1" stop-color="#052211" stop-opacity="0"/>
</linearGradient>
<linearGradient id="paint31_linear_1_1421" x1="341.5" y1="0" x2="341.5" y2="545" gradientUnits="userSpaceOnUse">
<stop stop-color="#052211" stop-opacity="0"/>
<stop offset="0.505" stop-color="#C3FF5A" stop-opacity="0.3"/>
<stop offset="1" stop-color="#052211" stop-opacity="0"/>
</linearGradient>
<linearGradient id="paint32_linear_1_1421" x1="341.5" y1="0" x2="341.5" y2="545" gradientUnits="userSpaceOnUse">
<stop stop-color="#052211" stop-opacity="0"/>
<stop offset="0.505" stop-color="#C3FF5A" stop-opacity="0.3"/>
<stop offset="1" stop-color="#052211" stop-opacity="0"/>
</linearGradient>
<linearGradient id="paint33_linear_1_1421" x1="341.5" y1="0" x2="341.5" y2="545" gradientUnits="userSpaceOnUse">
<stop stop-color="#052211" stop-opacity="0"/>
<stop offset="0.505" stop-color="#C3FF5A" stop-opacity="0.3"/>
<stop offset="1" stop-color="#052211" stop-opacity="0"/>
</linearGradient>
<linearGradient id="paint34_linear_1_1421" x1="341.5" y1="0" x2="341.5" y2="545" gradientUnits="userSpaceOnUse">
<stop stop-color="#052211" stop-opacity="0"/>
<stop offset="0.505" stop-color="#C3FF5A" stop-opacity="0.3"/>
<stop offset="1" stop-color="#052211" stop-opacity="0"/>
</linearGradient>
<linearGradient id="paint35_linear_1_1421" x1="341.5" y1="0" x2="341.5" y2="545" gradientUnits="userSpaceOnUse">
<stop stop-color="#052211" stop-opacity="0"/>
<stop offset="0.505" stop-color="#C3FF5A" stop-opacity="0.3"/>
<stop offset="1" stop-color="#052211" stop-opacity="0"/>
</linearGradient>
</defs>
</svg>
