<svg width="195" height="48" viewBox="0 0 195 48" fill="none" xmlns="http://www.w3.org/2000/svg">
<g clip-path="url(#clip0_1_1533)">
<path d="M67.2632 8.00391H84.7365V11.8339H71.8285V18.8798H83.3871V22.6734H71.8285V33.7836H67.2632V8.00391Z" fill="#F5F5F5"/>
<path d="M85.9806 25.2429V8.00391H90.5822V25.0651C90.5822 26.7902 91.1196 28.1113 92.1983 29.0284C93.277 29.9455 94.691 30.402 96.4403 30.402C98.1897 30.402 99.5956 29.9455 100.69 29.0284C101.785 28.1113 102.335 26.7902 102.335 25.0651V8.00391H106.936V25.2429C106.936 28.1679 106.04 30.3939 104.25 31.9292C102.46 33.4644 99.8542 34.232 96.4403 34.232C93.0265 34.232 90.4408 33.4644 88.6551 31.9292C86.8694 30.3939 85.9766 28.1679 85.9766 25.2429H85.9806Z" fill="#F5F5F5"/>
<path d="M115.966 11.9027H107.607V8H128.963V11.9027H120.568V33.7796H115.966V11.9027Z" fill="#F5F5F5"/>
<path d="M129.884 8.00391H135.06L142.72 21.522C144.336 24.4227 145.471 26.6326 146.117 28.1557H146.154C146.142 27.9537 146.117 27.4124 146.081 26.5397C146.045 25.6671 146.02 24.952 146.008 24.4025C145.984 23.445 145.972 22.334 145.972 21.0776V8.00391H150.339V33.7836H145.071L137.306 20.0514C135.868 17.4981 134.801 15.4013 134.106 13.761H134.033C134.082 14.6256 134.13 15.9144 134.179 17.6273C134.227 19.4494 134.252 20.4554 134.252 20.6493V33.7916H129.884V8.00391Z" fill="#F5F5F5"/>
<path d="M169.833 25.207V25.8009H156.133C156.205 29.2269 157.761 30.9399 160.807 30.9399C163.385 30.9399 164.883 29.8127 165.3 27.5584L169.542 27.8816C169.085 29.9541 168.111 31.5297 166.621 32.6084C165.13 33.6871 163.203 34.2245 160.843 34.2245C158.076 34.2245 155.858 33.372 154.193 31.6711C152.553 30.0309 151.729 27.6513 151.729 24.5364C151.729 21.6356 152.549 19.2924 154.193 17.5067C155.846 15.7816 158.052 14.917 160.807 14.917C162.257 14.917 163.574 15.1796 164.762 15.7088C165.95 16.2381 166.936 16.9936 167.728 17.9753C169.13 19.7489 169.833 22.1568 169.833 25.203V25.207ZM157.106 19.8337C156.589 20.5165 156.278 21.4094 156.173 22.5123H165.376C165.34 21.4094 165.001 20.4559 164.35 19.656C163.534 18.6985 162.354 18.2177 160.807 18.2177C159.13 18.2177 157.894 18.7551 157.102 19.8337H157.106Z" fill="#F5F5F5"/>
<path d="M185.261 33.7797H180.498L178.106 30.2729C178.022 30.1194 177.84 29.8164 177.557 29.3639C177.274 28.9155 177.044 28.5357 176.866 28.2206L176.199 27.1055L175.86 27.6267C174.806 29.3276 174.264 30.1962 174.244 30.2325L171.889 33.7757H167.214L173.848 24.124L167.699 15.3691H172.446L174.729 18.678L175.969 20.7101L176.276 21.1949C176.672 20.5849 176.919 20.1889 177.012 20.0071L177.82 18.7143L180.066 15.3691H184.777L178.628 24.124L185.261 33.7757V33.7797Z" fill="#F5F5F5"/>
<path d="M186.485 29.1778V18.8757H183.843V15.3689H186.485V10.2461H190.764V15.3689H194.558V18.8757H190.764V28.7617C190.764 29.2788 190.913 29.6344 191.212 29.8323C191.511 30.0303 192.016 30.1272 192.723 30.1272C193.071 30.1272 193.632 30.0667 194.412 29.9454L194.485 33.7391C193.754 33.8845 192.946 33.9572 192.057 33.9572C190.198 33.9572 188.804 33.5694 187.879 32.7977C186.95 32.0261 186.485 30.8181 186.485 29.1778Z" fill="#F5F5F5"/>
<path d="M23.4321 9.73231L23.719 9.83735C24.228 9.07378 24.8179 8.34657 25.4966 7.67188L23.4362 9.73231H23.4321ZM44.2102 29.1044L44.2748 29.2256L45.6606 27.8399C45.2 28.2964 44.7152 28.7206 44.2102 29.1044ZM23.4321 9.73231L23.719 9.83735C24.228 9.07378 24.8179 8.34657 25.4966 7.67188L23.4362 9.73231H23.4321Z" fill="#00CA55"/>
<path d="M48.1335 5.19155C41.2089 -1.73312 29.9411 -1.73312 23.0165 5.19155C20.2127 7.99535 18.5482 11.5021 18.0149 15.1463C17.5503 18.3137 17.9381 21.5861 19.1905 24.5839C19.6471 25.6989 20.2329 26.7736 20.9318 27.7957C21.5378 28.6805 22.2327 29.5208 23.0165 30.3086C23.9214 31.2096 24.9032 32.0055 25.9536 32.6801C26.9878 33.3548 28.0908 33.9164 29.2341 34.3527C31.2299 35.1163 33.3712 35.5122 35.573 35.5122C36.4497 35.5122 37.3183 35.4476 38.1707 35.3264C41.932 34.7769 45.4025 33.0438 48.1335 30.3086C55.0623 23.384 55.0623 12.1162 48.1335 5.19155ZM39.4434 4.03609C41.726 4.66634 43.8713 5.87836 45.661 7.66811C47.4023 9.40938 48.5941 11.486 49.2446 13.6878L43.5238 14.4999L38.8576 9.25181L39.4434 4.04013V4.03609ZM40.7927 16.6936L38.5546 21.9053L31.6743 21.1417L30.9269 14.9241L36.7406 12.1405L40.7887 16.6936H40.7927ZM25.493 7.66811C28.2766 4.8845 31.9208 3.49876 35.573 3.49876C35.7063 3.49876 35.8437 3.49876 35.977 3.50684L35.3669 8.91649L29.2139 11.8577L23.7154 9.82954L23.4286 9.7245L25.489 7.66407L25.493 7.66811ZM24.0265 26.115C21.2348 22.2689 20.6045 17.3279 22.1398 12.9929L27.404 14.9281L28.2403 21.9013L24.0265 26.115ZM35.573 32.0095C32.1874 32.0095 28.9796 30.8379 26.4182 28.6764L30.5512 24.5435L38.1101 25.3797L41.1887 30.8702C39.4393 31.6217 37.5365 32.0095 35.573 32.0095ZM45.661 27.8361L44.2753 29.2219L44.2106 29.1006L41.419 24.1193L44.0612 17.9541L49.8142 17.138C49.9799 20.9922 48.5941 24.899 45.661 27.8361Z" fill="#00CA55"/>
<g opacity="0.45">
<path d="M23.0161 5.19141C20.2123 7.99521 18.5478 11.502 18.0145 15.1461L7.95068 25.2099L5.47412 22.7334L23.0161 5.19141Z" fill="#00CA55"/>
</g>
<g opacity="0.45">
<path d="M48.1332 30.3086L30.4458 48L27.9692 45.5235L38.1704 35.3264C41.9317 34.7769 45.4021 33.0437 48.1332 30.3086Z" fill="#00CA55"/>
</g>
<g opacity="0.45">
<path d="M29.2339 34.3531L16.645 46.942L14.1685 44.4654L25.9493 32.6846C26.9835 33.3593 28.0865 33.9208 29.2298 34.3572L29.2339 34.3531Z" fill="#00CA55"/>
</g>
<g opacity="0.45">
<path d="M20.9275 27.7997L2.47656 46.2507L0 43.7742L19.1863 24.5879C19.6428 25.7029 20.2286 26.7776 20.9275 27.7997Z" fill="#00CA55"/>
</g>
</g>
<defs>
<clipPath id="clip0_1_1533">
<rect width="194.557" height="48" fill="white"/>
</clipPath>
</defs>
</svg>
