<svg width="24" height="24" viewBox="0 0 24 24" fill="none" xmlns="http://www.w3.org/2000/svg">
<g clip-path="url(#clip0_4051_684)">
<path d="M11.9972 23.1721C18.1657 23.1721 23.1663 18.1716 23.1663 12.0031C23.1663 5.83455 18.1657 0.833984 11.9972 0.833984C5.82869 0.833984 0.828125 5.83455 0.828125 12.0031C0.828125 18.1716 5.82869 23.1721 11.9972 23.1721Z" fill="#252525"/>
<path d="M11.9972 24C5.38302 24 0 18.617 0 12.0028C0 5.38854 5.38302 0 11.9972 0C18.6115 0 24 5.38302 24 12.0028C24 18.6225 18.617 24 11.9972 24ZM11.9972 1.65631C6.294 1.65631 1.65631 6.294 1.65631 12.0028C1.65631 17.7115 6.294 22.3437 11.9972 22.3437C17.7005 22.3437 22.3437 17.706 22.3437 12.0028C22.3437 6.29952 17.706 1.65631 11.9972 1.65631Z" fill="url(#paint0_linear_4051_684)"/>
<path d="M11.9972 21.4215C6.80188 21.4215 2.57275 17.1923 2.57275 11.997C2.57275 6.80173 6.80188 2.57812 11.9972 2.57812C17.1925 2.57812 21.4216 6.80725 21.4216 12.0026C21.4216 17.1979 17.1925 21.427 11.9972 21.427V21.4215ZM11.9972 2.98668C7.03376 2.9922 2.99235 7.03361 2.99235 12.0026C2.99235 16.9715 7.03376 21.0129 12.0027 21.0129C16.9716 21.0129 21.0131 16.9715 21.0131 12.0026C21.0131 7.03361 16.9661 2.9922 11.9972 2.9922V2.98668Z" fill="url(#paint1_linear_4051_684)"/>
<path d="M5.96841 13.6699C5.99602 13.6865 6.04019 13.692 6.05123 13.7196C6.22238 14.0067 6.38801 14.2993 6.55364 14.5919C6.58677 14.6527 6.59229 14.7244 6.60885 14.7907H5.96289C5.96289 14.4208 5.96289 14.0454 5.96289 13.6754L5.96841 13.6699Z" fill="url(#paint2_linear_4051_684)"/>
<path d="M5.9689 13.543C6.01307 13.5044 6.07932 13.4768 6.10693 13.4326C6.30568 13.0903 6.49892 12.7425 6.69768 12.4002C7.05655 11.7818 7.42646 11.169 7.78533 10.5506C8.03929 10.109 8.29326 9.66727 8.54723 9.22559H9.81155C9.7729 9.31392 9.75082 9.38018 9.71217 9.44091C9.63488 9.58445 9.54654 9.72248 9.46372 9.86603C9.28705 10.1642 9.1159 10.4678 8.93922 10.7715C8.66869 11.2408 8.40368 11.7101 8.13315 12.1738C8.01721 12.3671 7.89022 12.5548 7.77428 12.7535C7.61417 13.0351 7.45958 13.3222 7.29395 13.6259H9.18767C9.3257 13.3995 9.46372 13.1566 9.61279 12.9136C9.80603 12.5989 9.97718 12.2677 10.1649 11.953C10.3526 11.6328 10.5348 11.3181 10.7225 10.9978C10.844 10.7936 10.982 10.5948 11.098 10.385C11.2084 10.1862 11.3078 9.97645 11.4182 9.77769C11.5176 9.5955 11.6335 9.4133 11.7439 9.22559C11.9316 9.36361 11.9758 9.58445 12.0807 9.76665C12.1856 9.94332 12.2905 10.12 12.4064 10.3132C12.2187 10.6335 12.02 10.9647 11.8267 11.296L11.8102 11.2849C11.7494 11.4174 11.6942 11.5499 11.6169 11.6769C11.4127 12.0358 11.1973 12.3891 10.9931 12.7425C10.7336 13.1897 10.4796 13.6369 10.2201 14.0841C10.1042 14.2884 9.9827 14.4871 9.86124 14.6914C9.84468 14.719 9.83915 14.7577 9.82811 14.7908H6.60382C6.58726 14.7246 6.57622 14.6528 6.54861 14.592C6.38298 14.2994 6.21735 14.0123 6.04619 13.7197C6.02963 13.6976 5.99098 13.6866 5.96338 13.67C5.96338 13.6259 5.96338 13.5817 5.96338 13.543H5.9689Z" fill="url(#paint3_linear_4051_684)"/>
<path d="M11.9526 14.7856C12.0851 14.4599 12.2508 14.1617 12.4661 13.8746C12.6262 13.6648 12.7201 13.4053 12.847 13.1734C13.09 12.7318 13.3384 12.2956 13.5869 11.8594C13.62 11.8042 13.6697 11.7656 13.7194 11.7104C13.747 11.6386 13.7856 11.5558 13.8298 11.4454C13.9126 11.4288 14.0065 11.3957 14.1003 11.3901C14.4426 11.3846 14.7849 11.3901 15.1328 11.3901C15.0168 11.6055 14.9064 11.8263 14.7849 12.0416C14.5199 12.5054 14.2494 12.9636 13.9844 13.4219C13.7525 13.8194 13.5261 14.2169 13.2998 14.62C13.2722 14.6697 13.2611 14.7249 13.2446 14.7801H11.9582L11.9526 14.7856Z" fill="url(#paint4_linear_4051_684)"/>
<path d="M15.1329 11.3953C14.9673 11.1082 14.7961 10.8211 14.6305 10.5285C14.5974 10.4678 14.5642 10.4071 14.5145 10.3132H12.5767C12.7865 9.90464 12.9963 9.55681 13.2171 9.20898H18.0259C17.7499 9.56233 17.6615 10.004 17.3358 10.2635H15.8396C15.6132 10.4457 15.5635 10.7494 15.3979 10.9812C15.3041 11.1137 15.2212 11.2518 15.1329 11.3898V11.3953Z" fill="url(#paint5_linear_4051_684)"/>
</g>
<defs>
<linearGradient id="paint0_linear_4051_684" x1="11.9972" y1="24" x2="11.9972" y2="0" gradientUnits="userSpaceOnUse">
<stop stop-color="#FDD16B"/>
<stop offset="1" stop-color="#AB8B44"/>
</linearGradient>
<linearGradient id="paint1_linear_4051_684" x1="11.9972" y1="21.4215" x2="11.9972" y2="2.57812" gradientUnits="userSpaceOnUse">
<stop stop-color="#FDD16B"/>
<stop offset="1" stop-color="#AB8B44"/>
</linearGradient>
<linearGradient id="paint2_linear_4051_684" x1="6.28863" y1="14.7852" x2="6.28863" y2="13.6699" gradientUnits="userSpaceOnUse">
<stop stop-color="#FDD16B"/>
<stop offset="1" stop-color="#AB8B44"/>
</linearGradient>
<linearGradient id="paint3_linear_4051_684" x1="9.18767" y1="14.7853" x2="9.18767" y2="9.22006" gradientUnits="userSpaceOnUse">
<stop stop-color="#FDD16B"/>
<stop offset="1" stop-color="#AB8B44"/>
</linearGradient>
<linearGradient id="paint4_linear_4051_684" x1="13.5427" y1="14.7856" x2="13.5427" y2="11.3957" gradientUnits="userSpaceOnUse">
<stop stop-color="#FDD16B"/>
<stop offset="1" stop-color="#AB8B44"/>
</linearGradient>
<linearGradient id="paint5_linear_4051_684" x1="15.3041" y1="11.3953" x2="15.3041" y2="9.21451" gradientUnits="userSpaceOnUse">
<stop stop-color="#FDD16B"/>
<stop offset="1" stop-color="#AB8B44"/>
</linearGradient>
<clipPath id="clip0_4051_684">
<rect width="24" height="24" fill="white"/>
</clipPath>
</defs>
</svg>
