<svg width="32" height="32" viewBox="0 0 32 32" fill="none" xmlns="http://www.w3.org/2000/svg">
<g clip-path="url(#clip0_29_7563)">
<path d="M15.9959 30.896C24.2206 30.896 30.888 24.2286 30.888 16.0039C30.888 7.77924 24.2206 1.11182 15.9959 1.11182C7.77118 1.11182 1.10376 7.77924 1.10376 16.0039C1.10376 24.2286 7.77118 30.896 15.9959 30.896Z" fill="#252525"/>
<path d="M15.9963 32C7.17736 32 0 24.8226 0 16.0037C0 7.18472 7.17736 0 15.9963 0C24.8153 0 32 7.17736 32 16.0037C32 24.83 24.8226 32 15.9963 32ZM15.9963 2.20842C8.39199 2.20842 2.20842 8.39199 2.20842 16.0037C2.20842 23.6154 8.39199 29.7916 15.9963 29.7916C23.6006 29.7916 29.7916 23.608 29.7916 16.0037C29.7916 8.39935 23.608 2.20842 15.9963 2.20842Z" fill="url(#paint0_linear_29_7563)"/>
<path d="M15.9963 28.5624C9.06925 28.5624 3.43042 22.9236 3.43042 15.9965C3.43042 9.06946 9.06925 3.43799 15.9963 3.43799C22.9234 3.43799 28.5622 9.07682 28.5622 16.0039C28.5622 22.931 22.9234 28.5698 15.9963 28.5698V28.5624ZM15.9963 3.98273C9.37843 3.99009 3.98989 9.37864 3.98989 16.0039C3.98989 22.6292 9.37843 28.0177 16.0037 28.0177C22.6289 28.0177 28.0175 22.6292 28.0175 16.0039C28.0175 9.37864 22.6216 3.99009 15.9963 3.99009V3.98273Z" fill="url(#paint1_linear_29_7563)"/>
<path d="M7.95756 18.2266C7.99436 18.2486 8.05325 18.256 8.06798 18.2928C8.29618 18.6756 8.51702 19.0658 8.73786 19.4559C8.78203 19.5369 8.78939 19.6326 8.81148 19.7209H7.9502C7.9502 19.2277 7.9502 18.7271 7.9502 18.2339L7.95756 18.2266Z" fill="url(#paint2_linear_29_7563)"/>
<path d="M7.95756 18.0579C8.01645 18.0064 8.10478 17.9695 8.14159 17.9107C8.4066 17.4542 8.66425 16.9905 8.92926 16.5341C9.40775 15.7096 9.90097 14.8925 10.3795 14.068C10.7181 13.4791 11.0567 12.8902 11.3953 12.3013H13.0811C13.0296 12.4191 13.0001 12.5074 12.9486 12.5884C12.8455 12.7798 12.7277 12.9638 12.6173 13.1552C12.3818 13.5527 12.1536 13.9576 11.918 14.3625C11.5573 14.9882 11.2039 15.6139 10.8432 16.2323C10.6886 16.4899 10.5193 16.7402 10.3647 17.0052C10.1513 17.3806 9.94513 17.7634 9.72429 18.1683H12.2493C12.4333 17.8665 12.6173 17.5426 12.8161 17.2187C13.0737 16.7991 13.3019 16.3574 13.5522 15.9378C13.8025 15.5108 14.0454 15.0912 14.2957 14.6643C14.4577 14.3919 14.6417 14.1269 14.7963 13.8472C14.9435 13.5822 15.076 13.3024 15.2233 13.0374C15.3558 12.7945 15.5104 12.5516 15.6576 12.3013C15.9079 12.4853 15.9668 12.7798 16.1066 13.0227C16.2465 13.2583 16.3864 13.4938 16.5409 13.7515C16.2907 14.1784 16.0256 14.6201 15.768 15.0618L15.7459 15.0471C15.6649 15.2237 15.5913 15.4004 15.4883 15.5697C15.2159 16.0482 14.9288 16.5194 14.6564 16.9905C14.3104 17.5868 13.9718 18.183 13.6258 18.7793C13.4712 19.0517 13.3093 19.3167 13.1473 19.5891C13.1253 19.6259 13.1179 19.6774 13.1032 19.7216H8.80412C8.78203 19.6332 8.76731 19.5375 8.7305 19.4565C8.50966 19.0664 8.28882 18.6836 8.06062 18.2934C8.03853 18.264 7.987 18.2493 7.9502 18.2272C7.9502 18.1683 7.9502 18.1094 7.9502 18.0579H7.95756Z" fill="url(#paint3_linear_29_7563)"/>
<path d="M15.9363 19.7141C16.113 19.2798 16.3338 18.8823 16.6209 18.4995C16.8344 18.2198 16.9595 17.8738 17.1288 17.5646C17.4527 16.9757 17.784 16.3941 18.1153 15.8126C18.1594 15.739 18.2257 15.6874 18.2919 15.6138C18.3287 15.5181 18.3803 15.4077 18.4392 15.2605C18.5496 15.2384 18.6747 15.1942 18.7999 15.1869C19.2563 15.1795 19.7127 15.1869 20.1764 15.1869C20.0219 15.474 19.8746 15.7684 19.7127 16.0555C19.3593 16.6739 18.9986 17.2849 18.6453 17.8959C18.3361 18.4259 18.0343 18.9559 17.7325 19.4933C17.6957 19.5595 17.6809 19.6332 17.6588 19.7068H15.9436L15.9363 19.7141Z" fill="url(#paint4_linear_29_7563)"/>
<path d="M20.1769 15.1939C19.956 14.8111 19.7278 14.4283 19.507 14.0382C19.4628 13.9572 19.4187 13.8762 19.3524 13.7511H16.7686C17.0483 13.2063 17.328 12.7426 17.6225 12.2788H24.0343C23.6662 12.7499 23.5484 13.3388 23.1141 13.6848H21.1191C20.8173 13.9278 20.7511 14.3326 20.5302 14.6418C20.4051 14.8185 20.2947 15.0025 20.1769 15.1866V15.1939Z" fill="url(#paint5_linear_29_7563)"/>
</g>
<defs>
<linearGradient id="paint0_linear_29_7563" x1="15.9963" y1="32" x2="15.9963" y2="0" gradientUnits="userSpaceOnUse">
<stop stop-color="#FDD16B"/>
<stop offset="1" stop-color="#AB8B44"/>
</linearGradient>
<linearGradient id="paint1_linear_29_7563" x1="15.9963" y1="28.5624" x2="15.9963" y2="3.43799" gradientUnits="userSpaceOnUse">
<stop stop-color="#FDD16B"/>
<stop offset="1" stop-color="#AB8B44"/>
</linearGradient>
<linearGradient id="paint2_linear_29_7563" x1="8.38452" y1="19.7136" x2="8.38452" y2="18.2266" gradientUnits="userSpaceOnUse">
<stop stop-color="#FDD16B"/>
<stop offset="1" stop-color="#AB8B44"/>
</linearGradient>
<linearGradient id="paint3_linear_29_7563" x1="12.2493" y1="19.7142" x2="12.2493" y2="12.2939" gradientUnits="userSpaceOnUse">
<stop stop-color="#FDD16B"/>
<stop offset="1" stop-color="#AB8B44"/>
</linearGradient>
<linearGradient id="paint4_linear_29_7563" x1="18.0564" y1="19.7141" x2="18.0564" y2="15.1942" gradientUnits="userSpaceOnUse">
<stop stop-color="#FDD16B"/>
<stop offset="1" stop-color="#AB8B44"/>
</linearGradient>
<linearGradient id="paint5_linear_29_7563" x1="20.4051" y1="15.1939" x2="20.4051" y2="12.2862" gradientUnits="userSpaceOnUse">
<stop stop-color="#FDD16B"/>
<stop offset="1" stop-color="#AB8B44"/>
</linearGradient>
<clipPath id="clip0_29_7563">
<rect width="32" height="32" fill="white"/>
</clipPath>
</defs>
</svg>
